<svg width="48" height="48" viewBox="0 0 48 48" fill="none" xmlns="http://www.w3.org/2000/svg">
  <path d="M8 16C12 9.33333 17.3333 6 24 6C30.6667 6 36 8.66667 40 14" stroke="black" stroke-width="2" stroke-linecap="round"/>
  <path d="M36 10L40 14L35 16" stroke="black" stroke-width="2" stroke-linecap="round" stroke-linejoin="round"/>
  <path d="M40 32C36 38.6667 30.6667 42 24 42C17.3333 42 12 39.3333 8 34" stroke="black" stroke-width="2" stroke-linecap="round"/>
  <path d="M12 38L8 34L13 32" stroke="black" stroke-width="2" stroke-linecap="round" stroke-linejoin="round"/>
  <path d="M31 19H17C15.3431 19 14 20.3431 14 22V30C14 31.6569 15.3431 33 17 33H31C32.6569 33 34 31.6569 34 30V22C34 20.3431 32.6569 19 31 19Z" stroke="black" stroke-width="2"/>
  <path d="M20 19V16C20 15.3333 20.3333 15 21 15H27C27.6667 15 28 15.3333 28 16V19" stroke="black" stroke-width="2" stroke-linejoin="round"/>
  <path d="M24 30C26.2091 30 28 28.2091 28 26C28 23.7909 26.2091 22 24 22C21.7909 22 20 23.7909 20 26C20 28.2091 21.7909 30 24 30Z" stroke="black" stroke-width="2"/>
</svg>
