<svg width="80" height="80" viewBox="0 0 80 80" fill="none" xmlns="http://www.w3.org/2000/svg">
  <defs>
    <linearGradient id="mintGradient" x1="0" y1="0" x2="80" y2="80" gradientUnits="userSpaceOnUse">
      <stop offset="0" stop-color="#00C9A7"/>
      <stop offset="1" stop-color="#00A88C"/>
    </linearGradient>
  </defs>

  <path d="M40 10C40 10 30 14 30 24V42C30 42 24 40 18 46C12 52 12 60 18 66C24 72 36 78 40 78C44 78 56 72 62 66C68 60 68 52 62 46C56 40 50 42 50 42V24C50 14 40 10 40 10Z" fill="url(#mintGradient)"/>

  <circle cx="40" cy="24" r="5" fill="url(#mintGradient)"/>
  <circle cx="30" cy="32" r="4" fill="url(#mintGradient)"/>
  <circle cx="50" cy="32" r="4" fill="url(#mintGradient)"/>
</svg>
